REM DIRINDEX 1\2\6,1\2\7,1\2\8,1\3\9,1\3\10,1\3\11,1\4\12,1\4\13,1\4\14,1\5\15,1\5\16,1\5\17,1\5\18
REM DIRNAME folder01,folder02,folder03,folder04,folder05,folder06,folder07,folder08,folder09,folder10,folder11,folder12,folder13,folder14,folder15,folder16,folder17,folder18
TITLE ""
FILE "" MP3
  TRACK 01 AUDIO
    TITLE "16:cjc019_5747"
    INDEX 01 00:00:00
  TRACK 02 AUDIO
    TITLE "0:"
    INDEX 01 00:00:64
  TRACK 03 AUDIO
    TITLE "18:cjc019_5748"
    INDEX 01 00:01:52
  TRACK 04 AUDIO
    TITLE "0:"
    INDEX 01 00:03:04
  TRACK 05 AUDIO
    TITLE "17:cjc019_5749"
    INDEX 01 00:03:57
  TRACK 06 AUDIO
    TITLE "0:"
    INDEX 01 00:04:64
  TRACK 07 AUDIO
    TITLE "16:cjc019_5750"
    INDEX 01 00:06:49
  TRACK 08 AUDIO
    TITLE "0:"
    INDEX 01 00:08:01
  TRACK 09 AUDIO
    TITLE "18:cjc019_5751"
    INDEX 01 00:08:58
  TRACK 10 AUDIO
    TITLE "0:"
    INDEX 01 00:11:19
  TRACK 11 AUDIO
    TITLE "17:cjc019_5752"
    INDEX 01 00:11:70
  TRACK 12 AUDIO
    TITLE "0:"
    INDEX 01 00:13:22
  TRACK 13 AUDIO
    TITLE "16:cjc019_5753"
    INDEX 01 00:15:01
  TRACK 14 AUDIO
    TITLE "0:"
    INDEX 01 00:16:10
  TRACK 15 AUDIO
    TITLE "18:cjc019_5754"
    INDEX 01 00:16:65
  TRACK 16 AUDIO
    TITLE "0:"
    INDEX 01 00:21:09
  TRACK 17 AUDIO
    TITLE "17:cjc019_5755"
    INDEX 01 00:21:62
  TRACK 18 AUDIO
    TITLE "0:"
    INDEX 01 00:22:70
  TRACK 19 AUDIO
    TITLE "16:cjc019_5756"
    INDEX 01 00:24:59
  TRACK 20 AUDIO
    TITLE "0:"
    INDEX 01 00:26:01
  TRACK 21 AUDIO
    TITLE "18:cjc019_5757"
    INDEX 01 00:26:64
  TRACK 22 AUDIO
    TITLE "0:"
    INDEX 01 00:29:44
  TRACK 23 AUDIO
    TITLE "17:cjc019_5758"
    INDEX 01 00:30:26
  TRACK 24 AUDIO
    TITLE "0:"
    INDEX 01 00:31:49
  TRACK 25 AUDIO
    TITLE "16:cjc019_5759"
    INDEX 01 00:33:28
  TRACK 26 AUDIO
    TITLE "0:"
    INDEX 01 00:34:34
  TRACK 27 AUDIO
    TITLE "18:cjc019_5760"
    INDEX 01 00:35:17
  TRACK 28 AUDIO
    TITLE "0:"
    INDEX 01 00:36:52
  TRACK 29 AUDIO
    TITLE "17:cjc019_5761"
    INDEX 01 00:37:30
  TRACK 30 AUDIO
    TITLE "0:"
    INDEX 01 00:38:41
  TRACK 31 AUDIO
    TITLE "16:cjc019_5762"
    INDEX 01 00:40:21
  TRACK 32 AUDIO
    TITLE "0:"
    INDEX 01 00:41:44
  TRACK 33 AUDIO
    TITLE "18:cjc019_5763"
    INDEX 01 00:42:21
  TRACK 34 AUDIO
    TITLE "0:"
    INDEX 01 00:46:70
  TRACK 35 AUDIO
    TITLE "17:cjc019_5764"
    INDEX 01 00:47:42
  TRACK 36 AUDIO
    TITLE "0:"
    INDEX 01 00:48:55
  TRACK 37 AUDIO
    TITLE "16:cjc019_5765"
    INDEX 01 00:50:39
  TRACK 38 AUDIO
    TITLE "0:"
    INDEX 01 00:52:04
  TRACK 39 AUDIO
    TITLE "18:cjc019_5766"
    INDEX 01 00:52:57
  TRACK 40 AUDIO
    TITLE "0:"
    INDEX 01 00:54:40
  TRACK 41 AUDIO
    TITLE "17:cjc019_5767"
    INDEX 01 00:55:18
  TRACK 42 AUDIO
    TITLE "0:"
    INDEX 01 00:56:61
  TRACK 43 AUDIO
    TITLE "16:cjc019_5768"
    INDEX 01 00:58:42
  TRACK 44 AUDIO
    TITLE "0:"
    INDEX 01 00:59:49
  TRACK 45 AUDIO
    TITLE "18:cjc019_5769"
    INDEX 01 01:00:31
  TRACK 46 AUDIO
    TITLE "0:"
    INDEX 01 01:01:70
  TRACK 47 AUDIO
    TITLE "17:cjc019_5770"
    INDEX 01 01:02:50
  TRACK 48 AUDIO
    TITLE "0:"
    INDEX 01 01:03:61
  TRACK 49 AUDIO
    TITLE "16:cjc019_5771"
    INDEX 01 01:05:44
  TRACK 50 AUDIO
    TITLE "0:"
    INDEX 01 01:06:65
  TRACK 51 AUDIO
    TITLE "18:cjc019_5772"
    INDEX 01 01:07:47
  TRACK 52 AUDIO
    TITLE "0:"
    INDEX 01 01:09:22
  TRACK 53 AUDIO
    TITLE "17:cjc019_5773"
    INDEX 01 01:10:04
  TRACK 54 AUDIO
    TITLE "0:"
    INDEX 01 01:11:35
  TRACK 55 AUDIO
    TITLE "16:cjc019_5774"
    INDEX 01 01:13:16
  TRACK 56 AUDIO
    TITLE "0:"
    INDEX 01 01:14:49
  TRACK 57 AUDIO
    TITLE "18:cjc019_5775"
    INDEX 01 01:15:29
  TRACK 58 AUDIO
    TITLE "0:"
    INDEX 01 01:22:23
  TRACK 59 AUDIO
    TITLE "17:cjc019_5776"
    INDEX 01 01:23:01
  TRACK 60 AUDIO
    TITLE "0:"
    INDEX 01 01:24:28
  TRACK 61 AUDIO
    TITLE "16:cjc019_5777"
    INDEX 01 01:26:11
  TRACK 62 AUDIO
    TITLE "0:"
    INDEX 01 01:27:46
  TRACK 63 AUDIO
    TITLE "18:cjc019_5778"
    INDEX 01 01:28:25
  TRACK 64 AUDIO
    TITLE "0:"
    INDEX 01 01:32:19
  TRACK 65 AUDIO
    TITLE "17:cjc019_5779"
    INDEX 01 01:32:70
  TRACK 66 AUDIO
    TITLE "0:"
    INDEX 01 01:34:34
  TRACK 67 AUDIO
    TITLE "16:cjc019_5780"
    INDEX 01 01:36:09
  TRACK 68 AUDIO
    TITLE "0:"
    INDEX 01 01:37:28
  TRACK 69 AUDIO
    TITLE "18:cjc019_5781"
    INDEX 01 01:38:14
  TRACK 70 AUDIO
    TITLE "0:"
    INDEX 01 01:39:55
  TRACK 71 AUDIO
    TITLE "17:cjc019_5782"
    INDEX 01 01:40:36
  TRACK 72 AUDIO
    TITLE "0:"
    INDEX 01 01:41:59
  TRACK 73 AUDIO
    TITLE "16:cjc019_5783"
    INDEX 01 01:43:39
  TRACK 74 AUDIO
    TITLE "0:"
    INDEX 01 01:44:58
  TRACK 75 AUDIO
    TITLE "18:cjc019_5784"
    INDEX 01 01:45:44
  TRACK 76 AUDIO
    TITLE "0:"
    INDEX 01 01:46:66
  TRACK 77 AUDIO
    TITLE "17:cjc019_5785"
    INDEX 01 01:47:42
  TRACK 78 AUDIO
    TITLE "0:"
    INDEX 01 01:48:63
  TRACK 79 AUDIO
    TITLE "16:cjc019_5786"
    INDEX 01 01:50:43
  TRACK 80 AUDIO
    TITLE "0:"
    INDEX 01 01:51:52
  TRACK 81 AUDIO
    TITLE "18:cjc019_5787"
    INDEX 01 01:52:38
  TRACK 82 AUDIO
    TITLE "0:"
    INDEX 01 01:54:52
  TRACK 83 AUDIO
    TITLE "17:cjc019_5788"
    INDEX 01 01:55:28
  TRACK 84 AUDIO
    TITLE "0:"
    INDEX 01 01:56:41
  TRACK 85 AUDIO
    TITLE "16:cjc019_5789"
    INDEX 01 01:58:23
  TRACK 86 AUDIO
    TITLE "0:"
    INDEX 01 01:59:53
  TRACK 87 AUDIO
    TITLE "18:cjc019_5790"
    INDEX 01 02:00:37
  TRACK 88 AUDIO
    TITLE "0:"
    INDEX 01 02:05:19
  TRACK 89 AUDIO
    TITLE "17:cjc019_5791"
    INDEX 01 02:06:01
  TRACK 90 AUDIO
    TITLE "0:"
    INDEX 01 02:07:29
  TRACK 91 AUDIO
    TITLE "16:cjc019_5792"
    INDEX 01 02:09:13
  TRACK 92 AUDIO
    TITLE "0:"
    INDEX 01 02:10:42
  TRACK 93 AUDIO
    TITLE "18:cjc019_5793"
    INDEX 01 02:11:25
  TRACK 94 AUDIO
    TITLE "0:"
    INDEX 01 02:16:21
  TRACK 95 AUDIO
    TITLE "17:cjc019_5794"
    INDEX 01 02:16:73
  TRACK 96 AUDIO
    TITLE "0:"
    INDEX 01 02:18:31
  TRACK 97 AUDIO
    TITLE "16:cjc019_5795"
    INDEX 01 02:20:16
  TRACK 98 AUDIO
    TITLE "0:"
    INDEX 01 02:21:41
  TRACK 99 AUDIO
    TITLE "18:cjc019_5796"
    INDEX 01 02:22:23
  TRACK 100 AUDIO
    TITLE "0:"
    INDEX 01 02:26:31
  TRACK 101 AUDIO
    TITLE "17:cjc019_5797"
    INDEX 01 02:27:07
  TRACK 102 AUDIO
    TITLE "0:"
    INDEX 01 02:28:34
  TRACK 103 AUDIO
    TITLE "16:cjc019_5798"
    INDEX 01 02:30:13
  TRACK 104 AUDIO
    TITLE "0:"
    INDEX 01 02:31:40
  TRACK 105 AUDIO
    TITLE "18:cjc019_5799"
    INDEX 01 02:32:25
  TRACK 106 AUDIO
    TITLE "0:"
    INDEX 01 02:36:04
  TRACK 107 AUDIO
    TITLE "17:cjc019_5800"
    INDEX 01 02:36:51
  TRACK 108 AUDIO
    TITLE "0:"
    INDEX 01 02:38:08
